<mxfile host="Electron" modified="2023-09-30T14:51:56.380Z" agent="Mozilla/5.0 (Windows NT 10.0; Win64; x64) AppleWebKit/537.36 (KHTML, like Gecko) draw.io/22.0.0 Chrome/114.0.5735.289 Electron/25.8.3 Safari/537.36" etag="2nlh7huYluICsFkL0SMg" version="22.0.0" type="device">
  <diagram id="C5RBs43oDa-KdzZeNtuy" name="Page-1">
    <mxGraphModel dx="864" dy="508" grid="1" gridSize="10" guides="1" tooltips="1" connect="1" arrows="1" fold="1" page="1" pageScale="1" pageWidth="827" pageHeight="1169" math="0" shadow="0">
      <root>
        <mxCell id="WIyWlLk6GJQsqaUBKTNV-0" />
        <mxCell id="WIyWlLk6GJQsqaUBKTNV-1" parent="WIyWlLk6GJQsqaUBKTNV-0" />
        <mxCell id="TB0Dm7UxHgv0iOgiUEF7-4" value="" style="edgeStyle=orthogonalEdgeStyle;rounded=0;orthogonalLoop=1;jettySize=auto;html=1;fontSize=16;" parent="WIyWlLk6GJQsqaUBKTNV-1" source="TB0Dm7UxHgv0iOgiUEF7-1" target="TB0Dm7UxHgv0iOgiUEF7-3" edge="1">
          <mxGeometry relative="1" as="geometry" />
        </mxCell>
        <mxCell id="TB0Dm7UxHgv0iOgiUEF7-1" value="" style="ellipse;whiteSpace=wrap;html=1;aspect=fixed;fontSize=16;" parent="WIyWlLk6GJQsqaUBKTNV-1" vertex="1">
          <mxGeometry x="180" y="80" width="40" height="40" as="geometry" />
        </mxCell>
        <mxCell id="TB0Dm7UxHgv0iOgiUEF7-6" value="" style="edgeStyle=orthogonalEdgeStyle;rounded=0;orthogonalLoop=1;jettySize=auto;html=1;" parent="WIyWlLk6GJQsqaUBKTNV-1" source="TB0Dm7UxHgv0iOgiUEF7-3" target="TB0Dm7UxHgv0iOgiUEF7-5" edge="1">
          <mxGeometry relative="1" as="geometry" />
        </mxCell>
        <mxCell id="TB0Dm7UxHgv0iOgiUEF7-3" value="Nhập x, n" style="shape=parallelogram;perimeter=parallelogramPerimeter;whiteSpace=wrap;html=1;fixedSize=1;fontSize=16;" parent="WIyWlLk6GJQsqaUBKTNV-1" vertex="1">
          <mxGeometry x="120" y="160" width="160" height="40" as="geometry" />
        </mxCell>
        <mxCell id="TB0Dm7UxHgv0iOgiUEF7-8" value="" style="edgeStyle=orthogonalEdgeStyle;rounded=0;orthogonalLoop=1;jettySize=auto;html=1;" parent="WIyWlLk6GJQsqaUBKTNV-1" source="TB0Dm7UxHgv0iOgiUEF7-5" target="TB0Dm7UxHgv0iOgiUEF7-7" edge="1">
          <mxGeometry relative="1" as="geometry" />
        </mxCell>
        <mxCell id="TB0Dm7UxHgv0iOgiUEF7-5" value="S, i, j = 0, r =1" style="whiteSpace=wrap;html=1;fontSize=16;" parent="WIyWlLk6GJQsqaUBKTNV-1" vertex="1">
          <mxGeometry x="130" y="240" width="140" height="40" as="geometry" />
        </mxCell>
        <mxCell id="TB0Dm7UxHgv0iOgiUEF7-10" value="" style="edgeStyle=orthogonalEdgeStyle;rounded=0;orthogonalLoop=1;jettySize=auto;html=1;" parent="WIyWlLk6GJQsqaUBKTNV-1" source="TB0Dm7UxHgv0iOgiUEF7-7" target="TB0Dm7UxHgv0iOgiUEF7-9" edge="1">
          <mxGeometry relative="1" as="geometry" />
        </mxCell>
        <mxCell id="TB0Dm7UxHgv0iOgiUEF7-7" value="i &amp;lt; n" style="rhombus;whiteSpace=wrap;html=1;fontSize=16;" parent="WIyWlLk6GJQsqaUBKTNV-1" vertex="1">
          <mxGeometry x="120" y="320" width="160" height="50" as="geometry" />
        </mxCell>
        <mxCell id="TB0Dm7UxHgv0iOgiUEF7-22" value="" style="edgeStyle=orthogonalEdgeStyle;rounded=0;orthogonalLoop=1;jettySize=auto;html=1;" parent="WIyWlLk6GJQsqaUBKTNV-1" source="TB0Dm7UxHgv0iOgiUEF7-9" target="TB0Dm7UxHgv0iOgiUEF7-21" edge="1">
          <mxGeometry relative="1" as="geometry" />
        </mxCell>
        <mxCell id="TB0Dm7UxHgv0iOgiUEF7-9" value="i = i + 1" style="whiteSpace=wrap;html=1;fontSize=16;" parent="WIyWlLk6GJQsqaUBKTNV-1" vertex="1">
          <mxGeometry x="360" y="325" width="120" height="40" as="geometry" />
        </mxCell>
        <mxCell id="TB0Dm7UxHgv0iOgiUEF7-12" value="&lt;span style=&quot;font-size: 16px;&quot;&gt;đúng&lt;/span&gt;" style="text;html=1;align=center;verticalAlign=middle;resizable=0;points=[];autosize=1;strokeColor=none;fillColor=none;" parent="WIyWlLk6GJQsqaUBKTNV-1" vertex="1">
          <mxGeometry x="640" y="320" width="60" height="30" as="geometry" />
        </mxCell>
        <mxCell id="TB0Dm7UxHgv0iOgiUEF7-19" value="" style="edgeStyle=orthogonalEdgeStyle;rounded=0;orthogonalLoop=1;jettySize=auto;html=1;" parent="WIyWlLk6GJQsqaUBKTNV-1" source="TB0Dm7UxHgv0iOgiUEF7-15" target="TB0Dm7UxHgv0iOgiUEF7-18" edge="1">
          <mxGeometry relative="1" as="geometry" />
        </mxCell>
        <mxCell id="TB0Dm7UxHgv0iOgiUEF7-15" value="Xuất S" style="shape=card;whiteSpace=wrap;html=1;flipV=1;direction=south;fontSize=16;" parent="WIyWlLk6GJQsqaUBKTNV-1" vertex="1">
          <mxGeometry x="130" y="400" width="140" height="40" as="geometry" />
        </mxCell>
        <mxCell id="TB0Dm7UxHgv0iOgiUEF7-16" style="edgeStyle=orthogonalEdgeStyle;rounded=0;orthogonalLoop=1;jettySize=auto;html=1;exitX=0.5;exitY=1;exitDx=0;exitDy=0;entryX=1;entryY=0.5;entryDx=0;entryDy=0;entryPerimeter=0;" parent="WIyWlLk6GJQsqaUBKTNV-1" source="TB0Dm7UxHgv0iOgiUEF7-7" target="TB0Dm7UxHgv0iOgiUEF7-15" edge="1">
          <mxGeometry relative="1" as="geometry" />
        </mxCell>
        <mxCell id="TB0Dm7UxHgv0iOgiUEF7-17" value="&lt;font style=&quot;font-size: 16px;&quot;&gt;sai&lt;br&gt;&lt;/font&gt;" style="text;html=1;align=center;verticalAlign=middle;resizable=0;points=[];autosize=1;strokeColor=none;fillColor=none;" parent="WIyWlLk6GJQsqaUBKTNV-1" vertex="1">
          <mxGeometry x="160" y="365" width="40" height="30" as="geometry" />
        </mxCell>
        <mxCell id="TB0Dm7UxHgv0iOgiUEF7-18" value="" style="ellipse;whiteSpace=wrap;html=1;fontSize=16;" parent="WIyWlLk6GJQsqaUBKTNV-1" vertex="1">
          <mxGeometry x="180" y="480" width="40" height="40" as="geometry" />
        </mxCell>
        <mxCell id="TB0Dm7UxHgv0iOgiUEF7-20" value="" style="ellipse;whiteSpace=wrap;html=1;aspect=fixed;" parent="WIyWlLk6GJQsqaUBKTNV-1" vertex="1">
          <mxGeometry x="190" y="490" width="20" height="20" as="geometry" />
        </mxCell>
        <mxCell id="TB0Dm7UxHgv0iOgiUEF7-24" value="" style="edgeStyle=orthogonalEdgeStyle;rounded=0;orthogonalLoop=1;jettySize=auto;html=1;" parent="WIyWlLk6GJQsqaUBKTNV-1" source="TB0Dm7UxHgv0iOgiUEF7-21" target="TB0Dm7UxHgv0iOgiUEF7-23" edge="1">
          <mxGeometry relative="1" as="geometry" />
        </mxCell>
        <mxCell id="TB0Dm7UxHgv0iOgiUEF7-28" value="" style="edgeStyle=orthogonalEdgeStyle;rounded=0;orthogonalLoop=1;jettySize=auto;html=1;" parent="WIyWlLk6GJQsqaUBKTNV-1" source="TB0Dm7UxHgv0iOgiUEF7-21" target="TB0Dm7UxHgv0iOgiUEF7-27" edge="1">
          <mxGeometry relative="1" as="geometry" />
        </mxCell>
        <mxCell id="TB0Dm7UxHgv0iOgiUEF7-21" value="j &amp;lt; i" style="rhombus;whiteSpace=wrap;html=1;fontSize=16;" parent="WIyWlLk6GJQsqaUBKTNV-1" vertex="1">
          <mxGeometry x="540" y="320" width="110" height="50" as="geometry" />
        </mxCell>
        <mxCell id="TB0Dm7UxHgv0iOgiUEF7-26" style="edgeStyle=orthogonalEdgeStyle;rounded=0;orthogonalLoop=1;jettySize=auto;html=1;exitX=0.5;exitY=1;exitDx=0;exitDy=0;" parent="WIyWlLk6GJQsqaUBKTNV-1" source="TB0Dm7UxHgv0iOgiUEF7-23" edge="1">
          <mxGeometry relative="1" as="geometry">
            <mxPoint x="500" y="345" as="targetPoint" />
            <Array as="points">
              <mxPoint x="760" y="390" />
              <mxPoint x="500" y="390" />
              <mxPoint x="500" y="345" />
            </Array>
          </mxGeometry>
        </mxCell>
        <mxCell id="TB0Dm7UxHgv0iOgiUEF7-23" value="r = r * x&lt;br&gt;j = j + 1" style="whiteSpace=wrap;html=1;fontSize=16;" parent="WIyWlLk6GJQsqaUBKTNV-1" vertex="1">
          <mxGeometry x="700" y="325" width="120" height="40" as="geometry" />
        </mxCell>
        <mxCell id="TB0Dm7UxHgv0iOgiUEF7-30" style="edgeStyle=orthogonalEdgeStyle;rounded=0;orthogonalLoop=1;jettySize=auto;html=1;exitX=0;exitY=0.5;exitDx=0;exitDy=0;" parent="WIyWlLk6GJQsqaUBKTNV-1" source="TB0Dm7UxHgv0iOgiUEF7-27" edge="1">
          <mxGeometry relative="1" as="geometry">
            <mxPoint x="200" y="300" as="targetPoint" />
            <Array as="points">
              <mxPoint x="408" y="260" />
              <mxPoint x="408" y="300" />
              <mxPoint x="280" y="300" />
            </Array>
          </mxGeometry>
        </mxCell>
        <mxCell id="TB0Dm7UxHgv0iOgiUEF7-27" value="S = S + r&lt;br&gt;j = 0, r =1" style="whiteSpace=wrap;html=1;fontSize=16;" parent="WIyWlLk6GJQsqaUBKTNV-1" vertex="1">
          <mxGeometry x="535" y="240" width="120" height="40" as="geometry" />
        </mxCell>
        <mxCell id="TB0Dm7UxHgv0iOgiUEF7-29" value="&lt;font style=&quot;font-size: 16px;&quot;&gt;sai&lt;br&gt;&lt;/font&gt;" style="text;html=1;align=center;verticalAlign=middle;resizable=0;points=[];autosize=1;strokeColor=none;fillColor=none;" parent="WIyWlLk6GJQsqaUBKTNV-1" vertex="1">
          <mxGeometry x="590" y="290" width="40" height="30" as="geometry" />
        </mxCell>
      </root>
    </mxGraphModel>
  </diagram>
</mxfile>
